<svg width="500" height="500" viewBox="0 0 500 500" fill="none" xmlns="http://www.w3.org/2000/svg">
<path d="M250 0C388.071 0 500 111.929 500 250C500 388.071 388.071 500 250 500C111.929 500 0 388.071 0 250C0 111.929 111.929 0 250 0ZM368.921 180C343.844 180 321.843 193.156 309.46 212.936C297.077 193.156 275.077 180 250.001 180C224.924 180 202.922 193.157 190.539 212.938C178.156 193.157 156.156 180 131.079 180C92.3757 180 61 211.34 61 250C61 288.66 92.3757 320 131.079 320C156.156 320 178.156 306.842 190.539 287.062C202.922 306.842 224.923 320 250.001 320C275.077 320 297.077 306.843 309.46 287.063C321.843 306.843 343.844 320 368.921 320C407.624 320 438.999 288.66 438.999 250C438.999 211.34 407.624 180 368.921 180Z" fill="white"/>
<path fill-rule="evenodd" clip-rule="evenodd" d="M190.54 287.063C183.811 276.315 179.922 263.611 179.922 250C179.922 236.389 183.811 223.685 190.54 212.937C197.269 223.685 201.158 236.389 201.158 250C201.158 263.611 197.269 276.315 190.54 287.063Z" fill="white"/>
<path fill-rule="evenodd" clip-rule="evenodd" d="M309.46 212.937C316.189 223.685 320.078 236.389 320.078 250C320.078 263.611 316.189 276.315 309.46 287.063C302.731 276.315 298.842 263.611 298.842 250C298.842 236.389 302.731 223.685 309.46 212.937Z" fill="white"/>
</svg>
