<svg width="800" height="800" viewBox="0 0 800 800" fill="none" xmlns="http://www.w3.org/2000/svg">
<g clip-path="url(#clip0_298_42)">
<path d="M731.683 182.284C688.553 118.463 627.527 67.7766 555.72 37.3969C507.85 17.1547 455.172 5.95782 400.011 5.95782C344.85 5.95782 292.333 17.1547 244.664 37.4188C196.997 57.6828 154.178 86.9813 118.189 123.163C46.2219 195.483 1.50938 295.475 0.0203125 405.627V405.647C0.0109375 407.006 0 408.367 0 409.703C0 439.131 4.36719 464.33 12.2891 485.567C20.1891 506.795 31.7281 524.019 45.5484 536.908C54.7547 545.514 64.9344 552.173 75.5109 556.925C89.6312 563.263 104.403 566.216 118.725 566.216C131.517 566.216 143.956 563.883 155.422 559.364C166.875 554.838 177.398 548.114 186.027 539.175C208.902 515.455 241.819 501.153 278.28 501.142C305.47 501.153 330.53 509.364 351.445 523.483C372.342 537.592 388.975 557.63 398.887 581.084C405.503 596.734 409.164 613.894 409.164 632.027C409.175 639.338 407.986 646.95 406.092 655.298C404.23 663.627 401.65 672.597 399.402 682.509C397.292 691.866 396.255 700.825 396.255 709.378C396.212 725.198 399.959 739.672 406.714 751.661C413.436 763.683 422.975 772.995 433.391 779.58C440.337 783.989 447.692 787.244 455.131 789.555C465.055 792.617 475.127 794.03 484.9 794.041C494.053 794.03 502.97 792.809 511.427 790.197C594.162 764.592 666.205 714.269 717.694 647.441C769.172 580.644 800.023 497.105 800.002 405.944C800.022 323.189 774.802 246.105 731.683 182.284ZM197.597 392.417C164.787 392.417 138.184 365.805 138.184 333.006C138.184 300.184 164.786 273.584 197.597 273.584C230.417 273.584 257.019 300.184 257.019 333.006C257.019 365.805 230.417 392.417 197.597 392.417ZM301.945 260.053C273.408 260.053 250.262 236.909 250.262 208.361C250.262 179.822 273.406 156.678 301.945 156.678C330.495 156.678 353.638 179.822 353.638 208.361C353.638 236.909 330.495 260.053 301.945 260.053ZM451.222 233.966C425.616 233.966 404.848 213.198 404.848 187.594C404.848 161.989 425.616 141.222 451.222 141.222C476.827 141.222 497.594 161.988 497.594 187.594C497.594 213.2 476.828 233.966 451.222 233.966ZM565.225 214.891C588.037 214.891 606.523 233.377 606.523 256.188C606.523 278.989 588.037 297.486 565.225 297.486C542.414 297.486 523.928 278.989 523.928 256.188C523.928 233.377 542.416 214.891 565.225 214.891ZM639.195 561.806C634.411 573.089 626.456 582.648 616.458 589.425C606.448 596.191 594.277 600.161 581.325 600.161C572.697 600.161 564.402 598.395 556.886 595.216C545.603 590.442 536.033 582.488 529.267 572.48C522.491 562.47 518.52 550.311 518.53 537.358C518.53 528.73 520.284 520.434 523.464 512.909C528.248 501.636 536.192 492.067 546.202 485.302C556.211 478.514 568.381 474.553 581.323 474.564C589.962 474.564 598.258 476.32 605.773 479.498C617.056 484.273 626.627 492.238 633.391 502.236C640.167 512.245 644.139 524.417 644.128 537.358C644.13 545.984 642.375 554.292 639.195 561.806ZM621.266 397.661C603.431 397.661 588.959 383.209 588.959 365.364C588.959 347.519 603.431 333.067 621.266 333.067C639.109 333.067 653.572 347.519 653.572 365.364C653.572 383.209 639.109 397.661 621.266 397.661Z" fill="white"/>
</g>
<defs>
<clipPath id="clip0_298_42">
<rect width="800" height="800" fill="white"/>
</clipPath>
</defs>
</svg>
